# xmcd
#
# Track frame offsets:
#	150
#	13032
#	27182
#	41447
#	52730
#	61197
#	74990
#	89040
#	102552
#	113417
#	122832
#	136740
#	148615
#	158477
#	172057
#	187895
#	202302
#	214315
#	230077
#	244422
#	255177
#	271255
#	280197
#	288980
#	301265
#
# Disc length: 4225
#
# Revision: 2
# Processed by: cddbd v1.5.1PL0 Copyright (c) Steve Scherf et al.
# Submitted via: EasyCDDAExtractor 5.0.6
# Normalized: r1:TDELIM( - )
#
DISCID=72107f19
DTITLE=Various Artist - The Sounds Of Ireland
DYEAR=1989
DGENRE=Celtic
TTITLE0=The Kellys - Ruby Murray
TTITLE1=Moutains Of Mourne - Brendan O'Dowda
TTITLE2=Jigs - 1. Eavesdropper 2. Donnybrook Boys 3. A Visit To Ireland - The Ardelli Ceili Band
TTITLE3=Where The River Shannon Flows - Bridie Gallagher
TTITLE4=Its A Great Day For The Irish - Ruby Murray
TTITLE5=Irish Salute - 1. Galway Bay 2. With My Shillelagh Under My Arm 3. Dear Old Donegal - The Band Of The Irish Guards
TTITLE6=The Dear Little Shamrock (Live) - Brendan O'Dowda
TTITLE7=Whiskey In The Jar - The Dubliners
TTITLE8=Donnybrook Fair - 1. Donnybrook Fair 2. Tates Tantrums 3. Rakes Of Kildare - The Irish National Orchestra and Choir
TTITLE9=An Irish Lullaby - Shannonside Ceili Band
TTITLE10=Mother Machree - Father Sydney MacEwan
TTITLE11=Flower Of Sweet Strabane - Bridie Gallagher
TTITLE12=Danny Boy - Ruby Murray
TTITLE13=Rose Of Killarney - Father Sydney McEwan
TTITLE14=Queen Of Connemara - The Ardellis Ceili Band
TTITLE15=Galway Bay - Ruby Murray
TTITLE16=Reel 1. Paddy On The Railroad 2. Miss McLeod - Gallowglass Ceili Band
TTITLE17=Typically Irish - Brendan O'Dowda
TTITLE18=Finnegans Wake - The Irish National Orchestra and Choir
TTITLE19=Ireland My Home - Father Sydney McEwan
TTITLE20=Slievenamon - Bridie Gallagher
TTITLE21=When Irish Eyes Are Smiling - Ruby Murray
TTITLE22=The Fairmoye Lasses and Sporting Paddy - The Dubliners
TTITLE23=A Pretty Irish Girl - Brendan O'Dowda and Ruby Murray
TTITLE24=Come Back Paddy Reilly - Feis Eireann
EXTD=
EXTT0=
EXTT1=
EXTT2=
EXTT3=
EXTT4=
EXTT5=
EXTT6=
EXTT7=
EXTT8=
EXTT9=
EXTT10=
EXTT11=
EXTT12=
EXTT13=
EXTT14=
EXTT15=
EXTT16=
EXTT17=
EXTT18=
EXTT19=
EXTT20=
EXTT21=
EXTT22=
EXTT23=
EXTT24=
PLAYORDER=
